<?xml version="1.0" encoding="UTF-8"?>
<svg width="752pt" height="752pt" version="1.1" viewBox="0 0 752 752" xmlns="http://www.w3.org/2000/svg">
 <g>
  <path d="m338.11 374.68c-1.3555 0-2.6953-0.28906-3.9297-0.85156-11.32-4.7344-27.277-33.152-31.398-51.855-3.5039-15.863 3.2188-28.035 9.7539-39.875l0.003907-0.003906c3.1562-5.3633 5.8789-10.969 8.1445-16.766 3.9062-11.848 13.492-20.953 25.527-24.246 9.1562-12.738 22.613-21.738 37.887-25.336 18.941-4.2148 39.875 1.043 61.566 15.629h-0.003907c0.47266 0.28906 0.875 0.67578 1.1836 1.1367 3.9062 5.1289 8.4961 9.7031 13.641 13.59 9.4727 7.1055 34.43 67.676 33.531 78.281 0 3.2188-2.9844 31.824-16.148 43.996-1.8945 1.7539-7.1992 5.2578-15.582 0-12.504-7.6719-27.422-33.152-21.5-54.273 8.0039-28.414 9.2344-42.621 7.8633-46.457h-0.003906c-0.76953-2.4961 0.62891-5.1445 3.125-5.918 1.1758-0.44531 2.4805-0.40625 3.625 0.10938 1.1445 0.51172 2.0391 1.4609 2.4844 2.6367 2.6992 7.1992 0 24.816-7.5781 52.332-4.7344 16.055 7.3867 37.555 17.285 43.617 0.75781 0.47266 3.2695 1.8945 4.2617 0.99609 7.9102-7.3398 12.172-26.617 13.117-37.887 0.56641-7.7188-22.352-64.5-29.695-69.852l0.003906-0.003907c-5.7305-4.2969-10.859-9.3477-15.246-15.012-19.371-12.738-37.414-17.43-53.703-13.875l-0.003906-0.003906c-13.473 3.3242-25.262 11.461-33.148 22.875-0.73438 1.207-1.9688 2.0234-3.3633 2.2266-4.6953 1.0273-9.0312 3.2852-12.566 6.5391-3.5352 3.25-6.1445 7.3867-7.5625 11.977-2.4297 6.2695-5.3594 12.336-8.7578 18.141-6.2031 11.223-11.555 20.887-8.8086 33.152 4.4062 19.844 20.457 43.426 25.859 45.273h-0.003906c9.5312-7.0742 15.992-17.531 18.043-29.223 1.3008-9.832-0.68359-19.82-5.6367-28.414-9.0469-16.953-11.934-29.977-8.5703-38.785 1.1875-3.5664 3.8164-6.4688 7.2461-8.0039 2.5625-0.90234 5.3711 0.44531 6.2734 3.0078s-0.44141 5.3711-3.0039 6.2734c-0.94141 0.75391-1.5938 1.8086-1.8477 2.9844-1.0898 3.5039-1.5156 12.125 8.2422 30.453l-0.003906-0.003907c5.9023 10.328 8.2344 22.312 6.6328 34.098-2.4141 14.711-10.727 27.797-23.02 36.23-1.2773 0.73828-2.7344 1.1172-4.2148 1.0898z"/>
  <path d="m426.63 349.67c-4.4453-0.36719-8.7305-1.7969-12.504-4.168-6.0391 2.3125-12.609 2.8555-18.945 1.5625-1.3633-0.20703-2.7383-0.33203-4.1172-0.37891l-4.6406 0.89844c-3.0703 0.91797-6.3086 1.1289-9.4727 0.61719-2.4414-0.75-3.8477-3.2969-3.1836-5.7617s3.1602-3.957 5.6445-3.3789c1.7539-0.16406 3.4922-0.42969 5.2109-0.80469 1.7539-0.28516 3.5039-0.61719 5.0195-0.80469 2.1523-0.13281 4.3125-0.019531 6.4414 0.33203 4.7344 0.56641 11.555 1.4219 14.777-1.3242l-0.003906-0.003907c1.5742-1.3086 3.8086-1.4609 5.543-0.37891 3.0586 2 6.4375 3.457 9.9922 4.3086 2.2188-0.97266 4.8125-0.11328 6.0156 1.9922 1.2852 2.2617 0.5 5.1367-1.7539 6.4375-1.2422 0.63672-2.6328 0.92969-4.0234 0.85547z"/>
  <path d="m407.02 311.5c-0.62891 0.066406-1.2617 0.066406-1.8945 0-6.4883-1.0898-13.543-3.0781-16.574-9.4727-0.27734-0.54297-0.5-1.1133-0.66406-1.7031-1.1289-2.4219-2.9609-4.4531-5.2539-5.8242-1.5742-0.9375-2.4688-2.6953-2.2969-4.5195 0.17187-1.8242 1.3789-3.3828 3.1016-4.0078 0.56641-0.28516 1.9883-1.3242 3.0781-2.082 2.8398-2.5195 6.2031-4.3789 9.8516-5.4453 0 0 14.871-1.9883 19.512 1.1367 1.7031 1.0898 10.844 10.184 9.2344 16.906-0.91016 2.8281-3.5156 4.7695-6.4883 4.8281-0.56641 0-1.1367 0.89844-2.2266 2.8906-1.4688 4.0273-5.1133 6.8633-9.3789 7.293zm-14.207-20.98c1.7852 1.9023 3.1406 4.1602 3.9805 6.6289v0.56641c0.94531 1.9883 3.8828 3.3164 9.4727 4.2617l-0.003906 0.003907c0.66797-0.65625 1.2109-1.4258 1.6133-2.2734 1.2852-3.1172 3.6797-5.6484 6.7227-7.1016-1.1797-1.9648-2.5977-3.7773-4.2148-5.4023-4.3672-0.41016-8.7656-0.32812-13.117 0.23828-1.5 1.0195-2.9414 2.125-4.3086 3.3164z"/>
  <path d="m359.47 262.34s4.7344 12.359 18.941-2.0352c0.097657 0.1875-7.1484-16.293-18.941 2.0352z"/>
  <path d="m423.36 262.01c-0.61719-0.47266 6.9609-19.273 18.516-0.75781 0.14453 0-4.7344 11.316-18.516 0.75781z"/>
  <path d="m368.47 312.3c-2.6172 0-4.7383-2.1211-4.7383-4.7344 0-3.0312 0.94531-18.469 3.5508-23.914l0.003906-0.003906c1.4062-2.4609 2.9922-4.8203 4.7344-7.0547 3.2695-4.7344 10.941-15.438 10.039-18.941-2.4609-9.4727 3.125-26.094 4.2148-27.75v-0.003906c0.69531-1.0508 1.7812-1.7812 3.0156-2.0312 1.2383-0.25 2.5195 0.003906 3.5664 0.70312 2.0273 1.3477 2.6992 4.0078 1.5625 6.1562-1.1367 2.6055-4.7344 14.918-3.2188 20.555 1.8945 7.2461-4.0742 16.48-11.461 26.852-1.6094 2.3203-3.2695 4.7344-3.7422 5.6367-1.6445 6.6523-2.5312 13.465-2.6523 20.316-0.26953 2.4648-2.3984 4.3047-4.875 4.2148z"/>
  <path d="m428.09 289.91c-2.4883 0.003906-4.5586-1.9219-4.7344-4.4062-1.168-7.0664-4.6484-13.547-9.8984-18.422-3.6953-4.3086-6.9609-8.0508-5.4922-12.598-0.99219-7.2383-2.9531-14.309-5.8242-21.027-0.56641-1.1875-0.60938-2.5586-0.125-3.7852 0.48828-1.2227 1.4648-2.1875 2.6914-2.6641 1.2266-0.47656 2.5977-0.41797 3.7812 0.16016 1.1875 0.57422 2.0781 1.6211 2.4609 2.8789 2.8906 7.4336 7.3398 20.41 6.25 26.473 1.0195 1.5547 2.1758 3.0117 3.457 4.3594 6.4688 6.3711 10.66 14.691 11.934 23.68 0.17578 1.3164-0.21484 2.6484-1.0703 3.6641-0.85547 1.0195-2.0977 1.6289-3.4297 1.6875z"/>
  <path d="m388.79 332.1c-2.1641-0.011718-4.0469-1.4883-4.5703-3.5898-0.52734-2.0977 0.4375-4.2852 2.3438-5.3164 6.2812-3.9922 11.551-9.3906 15.391-15.77 1.3633-2.1406 4.168-2.8281 6.3672-1.5586 2.1953 1.2695 3.0039 4.0469 1.8281 6.2969 0 0.75781 0.89844 4.7344 9.9453 10.609v-0.003907c2.0977 1.4258 2.6992 4.25 1.3672 6.4062-1.332 2.1602-4.1289 2.8828-6.3398 1.6445-4.4297-2.5469-8.293-5.9609-11.367-10.039-3.5664 4.2891-7.8633 7.9102-12.691 10.703-0.69531 0.39453-1.4766 0.60547-2.2734 0.61719z"/>
  <path d="m232.65 465.27c-6.6758 0.47266-13.195-2.168-17.664-7.1484-2.6875-3.0156-3.668-7.1875-2.6055-11.082 3.5039-12.836 28.414-23.395 35.801-26.285h0.003906c1.3008-3.2266 2.0234-6.6562 2.1289-10.133-6.9141-42.055 10.844-57.164 16.766-61.047 11.746-31.16 39.969-29.266 40.254-29.266 2.6016 0.22656 4.5273 2.5117 4.3086 5.1133-0.22656 2.582-2.4844 4.5-5.0664 4.3125-0.89844 0-22.258-1.1836-31.16 24.625-0.42969 1.2188-1.3359 2.2109-2.5117 2.7461-0.75781 0.37891-20.176 10.371-13.215 52.52h0.003906c0.023438 0.33203 0.023438 0.66406 0 0.99609 0 3.125-0.99609 13.688-5.7773 17.758-0.41797 0.37109-0.89844 0.66406-1.4219 0.85156-11.84 4.4531-29.316 13.734-31.066 20.316-0.29297 0.92578-0.035156 1.9336 0.66016 2.6055 7.4336 9.1406 32.676-1.1367 41.012-4.7344 1.9883-0.80469 3.5508-1.4219 4.3555-1.6562 3.0312-0.89844 14.207-9.0938 16.148-15.25h0.003907c0.44922-0.96094 0.28125-2.0977-0.42578-2.8906-0.80469-0.96484-1.1914-2.2148-1.0781-3.4648 0.11719-1.2539 0.72656-2.4102 1.6953-3.2109 0.96484-0.80469 2.2109-1.1953 3.4648-1.0781 1.2539 0.11328 2.4062 0.72266 3.2109 1.6914 2.7383 3.2422 3.5664 7.6875 2.1797 11.699-2.9844 9.9922-17.238 19.984-22.449 21.547l-3.5508 1.375c-10.699 5.0469-22.215 8.125-34.004 9.0898z"/>
  <path d="m321.73 466.64c-3.9961 0.19531-7.9375-0.97266-11.18-3.3164-2.4219-1.7852-4.1055-4.3945-4.7344-7.3398-9.1406-19.984-14.207-22.875-15.629-23.254-0.56641 0-0.94531 0-2.3203 0.85156v0.003906c-1.0195 0.76953-2.2031 1.3047-3.457 1.5625-1.2422 0.20312-2.5156-0.097656-3.5391-0.83203-1.0234-0.73828-1.707-1.8555-1.9062-3.0977-0.38672-2.3516 1.0352-4.6211 3.3164-5.3047l0.42578-0.28516c2.8906-2.1875 6.6289-2.918 10.133-1.9883 6.9609 2.0352 13.734 10.988 21.879 29.031 0.23047 0.53906 0.375 1.1172 0.42578 1.7031 0.19531 0.66016 0.61328 1.2305 1.1875 1.6094 1.043 0.75781 3.7891 1.8477 10.184 0.66406h-0.003906c2.5781-0.58984 5.1406 1.0234 5.7305 3.5977 0.58984 2.5781-1.0234 5.1445-3.5977 5.7305-2.2812 0.42969-4.5938 0.64844-6.9141 0.66406z"/>
  <path d="m397.07 539.25c-4.2891 0.074218-8.4961-1.1914-12.035-3.6172-3.5391-2.4297-6.2344-5.8984-7.7109-9.9297-0.53906-1.2148-1.2227-2.3594-2.0352-3.4102-1.2812-0.94141-2.4453-2.0391-3.4609-3.2656-2.0352-2.4141-4.7344-5.6836-28.414-9.8516-12.312-2.1328-21.074-7.1523-26-14.871-3.5742-5.8164-4.9375-12.727-3.8359-19.465-5.918-14.207 4.7344-38.785 6.2969-41.723l0.003906 0.003907c1.0859-2.3828 3.8945-3.4297 6.2734-2.3477 2.3828 1.0859 3.4297 3.8945 2.3438 6.2773-4.3555 9.4727-9.8516 27.75-5.8242 34.809 0.60156 1.082 0.75391 2.3555 0.42578 3.5508-0.96094 4.7734-0.11719 9.7344 2.3672 13.922 4.7891 6.082 11.895 9.8906 19.609 10.516 25.102 4.4062 30.168 8.3359 34.191 13.023 0.46484 0.63281 1.0234 1.1914 1.6562 1.6562 2.2031 1.8516 3.9258 4.207 5.0195 6.8672 2.8906 5.6367 5.1602 10.086 16.527 7.8125 5.6406-1.0781 11.359-1.7109 17.098-1.8945 3.2266 0.20703 6.4609-0.29297 9.4727-1.4648 0 0 0.75781-1.1836 0.51953-4.7344-1.043-15.391-6.25-25.148-10.465-25.43v-0.003907c-3.5156-0.23438-6.9688-1.0352-10.23-2.3672-2.5312-1.0156-5-2.1836-7.3867-3.5039l-1.9414-0.99609c-2.1328-0.51953-3.3164-2.2734-4.9727-4.7344-3.2539-6.0781-8.9375-10.484-15.629-12.125-1.9883-0.33203-8.1445-1.4219-8.4766-6.6758 0-2.2266-0.37891-6.8672 17.758-12.266v-0.003906c1.2344-0.48047 2.6133-0.42188 3.8008 0.15625 1.1914 0.58203 2.082 1.6328 2.4609 2.9023 0.37891 1.2695 0.20703 2.6367-0.46875 3.7734-0.67578 1.1406-1.7969 1.9414-3.0938 2.2148-1.8477 0.56641-3.7422 1.2305-5.4922 1.8945 7.1484 2.9492 13.125 8.1797 17 14.871l0.89844 1.3242c0.75781 0.33203 1.5625 0.75781 2.6055 1.3242 1.043 0.56641 3.8828 2.0352 6.3477 3.0312v0.003906c2.3594 0.96094 4.8516 1.5508 7.3867 1.75 12.598 0.71094 18.234 18.137 19.371 34.191v0.003906c0.60547 4.207-0.52344 8.4766-3.125 11.836-3.5977 4.0273-9.0938 4.3086-16.055 4.7344v0.003906c-5.2773 0.15234-10.535 0.72266-15.723 1.7031-2.3281 0.40625-4.6953 0.58203-7.0586 0.52344z"/>
  <path d="m528.16 538.68c-9.1328-0.86719-17.969-3.6914-25.906-8.2852-1.8828-1.0664-3.8281-2.0156-5.8242-2.8438-5.1602 0-6.4883-4.7344-7.1055-7.0547-0.72266-3.5938-2.8984-6.7305-6.0117-8.668-11.98-8.3828-20.742-15.582-24.625-23.395h-0.003906c-5.9219-8.5273-13.469-15.801-22.211-21.406-2.1211 2.7422-3.8438 5.7695-5.1133 9l-1.7539 3.6953v-0.003906c-3.2773 5.1055-8.0352 9.0859-13.637 11.414-0.9375 0.43359-1.8438 0.94141-2.6992 1.5156-2.082 1.5938-5.0586 1.2031-6.6562-0.875-1.5938-2.082-1.2031-5.0586 0.87891-6.6562 1.3047-0.91406 2.6836-1.7227 4.1172-2.4141 3.7578-1.5078 7.0352-4.0156 9.4727-7.2461l1.6562-3.4102c3.125-6.8203 6.4414-13.875 12.836-14.586 1.5156 0 5.5391-0.61719 17.523 10.418 5.5 4.7305 10.285 10.234 14.207 16.34 3.1719 6.3477 12.266 13.309 21.594 19.844 4.8984 3.3086 8.3008 8.4102 9.4727 14.207v0.28516c2.7383 0.85938 5.3906 1.9844 7.9102 3.3594 8.0977 4.0273 21.691 10.703 27.895 5.3047h-0.003907c5.2539-3.8203 8.125-10.105 7.5781-16.574-0.99609-3.5352-3.9492-6.1758-7.5781-6.7734-13.449-3.5977-23.68-14.539-30.5-21.738-1.7031-1.8477-3.1719-3.4102-4.4062-4.7344h0.003907c-3.9023-4.1992-7.3477-8.8008-10.277-13.734-3.9766-6.0156-9.4727-14.207-12.551-16.008-4.7344-2.8398-5.7305-10.184-6.8672-21.312-1.3242-12.551-2.8906-28.129-11.176-34.617h0.003906c-1.4492-1.1094-2.1289-2.9492-1.7539-4.7344 0.75781-3.8828 1.7031-15.203-2.6992-20.934-1.5977-2.0781-1.2031-5.0586 0.875-6.6523 2.082-1.5938 5.0586-1.2031 6.6562 0.875 6.2031 8.0977 5.5898 20.223 4.7344 25.762 9.4727 9.4727 11.223 25.809 12.598 39.211v0.003906c0.14062 4.832 0.98438 9.6172 2.5078 14.207 4.7344 2.6523 9.8984 10.465 15.391 18.707h0.003906c2.5742 4.4609 5.5703 8.6641 8.9492 12.551 1.375 1.2773 3.0312 3.0312 4.7344 5.0664 6.3945 6.8203 15.203 16.195 26 18.941 3.4141 0.71875 6.5586 2.3789 9.0742 4.8008 2.5117 2.4219 4.293 5.5 5.1328 8.8867 0.71484 4.8359 0.13281 9.7734-1.6914 14.309-1.8203 4.5352-4.8164 8.5078-8.6797 11.504-3.3438 2.9141-7.6406 4.4961-12.074 4.4492z"/>
  <path d="m285.45 338.11c-1.3359 0-2.6094-0.57031-3.5039-1.5625-8.2422-9.0469-22.496-24.293-25.668-26.711v0.003906c-1.6523-1.1016-2.5-3.0742-2.1641-5.0312 0.33984-1.957 1.8008-3.5312 3.7266-4.0156 5.2578-1.3242 34.996 9.1406 43.047 18.707 1.6875 2 1.4336 4.9883-0.56641 6.6758s-4.9922 1.4336-6.6797-0.56641c-5.543-4.7852-11.984-8.4219-18.941-10.703 6.4414 6.7734 12.93 13.922 14.207 15.25 1.7578 1.9219 1.6328 4.9062-0.28516 6.6758-0.85938 0.80859-1.9922 1.2617-3.1719 1.2773z"/>
  <path d="m347.87 433.26c-4.3086-0.48828-8.3242-2.4062-11.414-5.4453-0.77734-0.67188-1.5977-1.2891-2.4609-1.8477-4.7344 0-7.3867-5.3984-10.75-16.766 0.089844 1.75 0.089844 3.5078 0 5.2578-0.32422 2.9648-2.2539 5.5117-5.0234 6.6289-6.8555 2.4688-14.441 1.8828-20.836-1.6094-5.8711-3.9297-6.2969-16.387-6.2031-34.996v-3.4102c0-13.449 17.902-38.504 19.938-41.344 0.74219-1.0195 1.8555-1.6992 3.0977-1.8945 1.2461-0.19531 2.5156 0.10938 3.5312 0.85156 2.1211 1.543 2.5859 4.5117 1.043 6.6289-7.0078 9.4727-18.137 27.941-18.137 35.754v3.457c0 7.293 0 24.391 2.2266 27.277l-0.003906 0.003907c3.4883 1.4141 7.3281 1.7109 10.988 0.85156v-8.0039c0-13.496 0-20.176 1.9883-23.348 1.0625-1.7266 3-2.7148 5.0195-2.5547 4.1211 0.51953 5.0195 3.7422 8.6211 17.238 1.6602 7.0391 3.8594 13.941 6.582 20.645 2.4023 0.76563 4.6055 2.0625 6.4414 3.7891 1.4688 1.1836 4.7344 3.6953 5.6367 3.3164 0 0 2.9375-1.0898 5.8242-12.457 2.0039-10.168 6.0312-19.828 11.84-28.414 1.7539-2.5117 1.7539-2.5586 1.4219-4.4062l-0.003907 0.003906c-2.7891-10.574-6.1914-20.98-10.18-31.164-0.44531-1.1719-0.40625-2.4766 0.10938-3.6211 0.51172-1.1484 1.4609-2.0391 2.6367-2.4883 1.1758-0.44531 2.4766-0.40625 3.625 0.10938 1.1445 0.51562 2.0391 1.4648 2.4844 2.6406 4.1641 10.684 7.6758 21.613 10.512 32.723 0.90234 4.0781-0.20703 8.3398-2.9805 11.461-5.1602 7.8008-8.6914 16.562-10.371 25.762-2.8906 11.223-6.6758 17.285-12.027 18.941l-0.003906 0.003906c-1.0312 0.29688-2.0977 0.44141-3.1719 0.42578z"/>
 </g>
</svg>
