<?xml version="1.0" encoding="UTF-8"?>
<svg width="752pt" height="752pt" version="1.1" viewBox="0 0 752 752" xmlns="http://www.w3.org/2000/svg">
 <g>
  <path d="m596 400.97c-8.8242-9.043-22.602-10.836-33.438-4.3789l-106.84 63.504c-6.0977-9.043-16.504-15.07-28.27-15.07h-57.762c-4.3047 0-8.6094-0.57422-12.699-1.793l-31.215-8.8945c-5.0938-1.4336-10.332-2.2227-15.715-2.2227l-6.5312-0.003907c-12.414 0-24.754 4.1602-34.586 11.695l-14.496 11.051c-6.6016 5.0234-14.496 8.0352-22.676 9.043v-12.988c0-2.9414-2.4414-5.3828-5.3828-5.3828h-72.824c-2.9414 0-5.3828 2.4414-5.3828 5.3828 0 2.9414 2.4414 5.3789 5.3828 5.3789h67.379v134.83h-67.379c-2.9414 0-5.3828 2.4414-5.3828 5.3828s2.4414 5.3828 5.3828 5.3828h72.758c2.9414 0 5.3828-2.4414 5.3828-5.3828v-28.199l20.664 15.5c9.832 7.3203 21.957 11.336 34.156 11.336h102.75c14.352 0 28.055-5.3828 38.461-14.852l104.04-87.109c2.2969-1.9375 2.582-5.3086 0.64453-7.6055s-5.3086-2.582-7.6055-0.64453l-104.19 87.176c-8.5391 7.8945-19.734 12.199-31.355 12.199h-102.68c-9.9023 0-19.805-3.3008-27.77-9.2578l-27.125-20.305 0.003906-80.078c10.547-1.0039 20.738-4.8086 29.203-11.266l14.496-11.051c8.0352-6.0977 18.012-9.4727 28.055-9.4727h6.6016c4.3047 0 8.6094 0.57422 12.699 1.793l31.141 8.8984c5.0938 1.4336 10.406 2.2227 15.715 2.2227h57.762c12.844 0 23.32 10.477 23.32 23.32s-10.477 23.32-23.32 23.32h-56.113c-2.9414 0-5.3828 2.4414-5.3828 5.3828s2.4414 5.3828 5.3828 5.3828h56.113c18.801 0 34.082-15.285 34.082-34.082 0-3.1562-0.57422-6.2422-1.4336-9.1836l107.92-64.078c6.6016-3.875 14.926-2.7969 20.234 2.6562 3.1562 3.2305 4.8789 7.4609 4.7344 11.984-0.14453 4.5195-2.0078 8.6836-5.168 11.551l-43.984 36.809c-2.2969 1.9375-2.582 5.3086-0.64453 7.6055 1.0781 1.293 2.582 1.9375 4.1602 1.9375 1.2188 0 2.4414-0.42969 3.4453-1.2188l44.129-36.953c5.5234-5.0234 8.6094-11.91 8.8242-19.375 0.36719-7.5352-2.4336-14.566-7.6719-19.875z"/>
  <path d="m370.19 214.62c0 5.9062-4.7852 10.691-10.691 10.691-5.9023 0-10.691-4.7852-10.691-10.691s4.7891-10.691 10.691-10.691c5.9062 0 10.691 4.7852 10.691 10.691"/>
  <path d="m239.16 414.25c2.2227 0 3.5156-0.14453 3.6602-0.14453h252.79c10.477 0 19.949-5.3086 25.328-14.277 5.4531-8.9688 5.7422-19.805 0.93359-29.062l-31.645-60.633c2.082-1.293 4.0898-2.6562 6.0273-4.1602 14.852-11.695 19.016-32.648 10.047-49.871-1.2188-2.2969-2.582-4.8789-4.0195-7.5352 0-0.070312 0-0.14453-0.070312-0.21484l-0.21484-0.21484c-13.273-24.398-35.16-60.777-56.828-80.078-5.3086-4.6641-11.336-8.25-17.938-10.547-16.359-5.668-48.363-13.203-78.645-0.42969-13.781 5.8125-24.398 17.867-28.418 32.359-4.0898 14.781-14.137 40.324-34.441 45.637-3.4453 0.71875-33.941 7.75-40.973 26.836-3.1562 8.6094-1.0781 17.938 6.3125 27.625 0.50391 0.85938 2.082 3.3008 4.5195 6.2422 0.14453 0.21484 0.35938 0.42969 0.50391 0.64453 5.8125 7.0312 16.504 17.078 32.504 21.023 18.082 4.4492 37.742-0.21484 58.551-13.707 2.5117-1.6484 3.2305-4.9492 1.5781-7.4609-1.6484-2.5117-4.9492-3.2305-7.4609-1.5781-18.152 11.84-35.016 15.93-50.012 12.344-9.043-2.2227-16.145-6.9609-21.312-11.625 12.484-5.8828 20.953-18.441 20.953-32.793 0-5.8828-1.5078-11.551-4.1602-16.719 0.50391-0.14453 1.0039-0.28516 1.4336-0.35938 25.832-6.7461 37.598-36.234 42.336-53.242 3.1562-11.336 11.48-20.809 22.242-25.328 27.051-11.41 56.039-4.4492 70.965 0.71875 5.3086 1.793 10.117 4.6641 14.352 8.3945 2.6562 2.3672 5.3086 5.0234 7.9648 7.8945-7.6016 8.3242-11.91 19.23-11.91 30.641 0 25.113 20.449 45.637 45.637 45.637 5.2383 0 10.332-0.85938 15.211-2.6562 0.64453 1.2188 1.293 2.3672 1.8672 3.5156 6.6016 12.559 3.5859 27.84-7.1758 36.379-30.496 24.109-80.508 6.5312-80.723 6.457-13.133-5.5234-11.266-45.492-5.7422-72.184 0.57422-2.9414-1.293-5.7422-4.1602-6.3867-2.8711-0.64453-5.7422 1.293-6.3867 4.1602-1.5078 7.4609-14.277 73.191 12.414 84.383 1.293 0.50391 20.02 7.1055 42.406 7.1055 10.762 0 22.387-1.5781 33.293-6.0977l31.715 60.777c3.0859 5.8828 2.8711 12.844-0.57422 18.512-3.4453 5.668-9.4727 9.1133-16.145 9.1133h-65.941c2.6562-15.211 15.859-26.906 31.859-26.906 2.9414 0 5.3828-2.4414 5.3828-5.3828 0-2.9414-2.4414-5.3828-5.3828-5.3828-16.215 0-30.426 9.043-37.742 22.316-7.3906-13.273-21.527-22.316-37.742-22.316-2.9414 0-5.3828 2.4414-5.3828 5.3828 0 2.9414 2.4414 5.3828 5.3828 5.3828 16 0 29.203 11.625 31.859 26.906h-90.984c-1.0039-8.6094-4.3789-16.434-9.3281-23.035-0.57422-14.852 7.9648-28.629 21.668-34.656 2.7266-1.2188 3.9453-4.3789 2.7969-7.1055-1.2188-2.7266-4.3789-3.9453-7.1055-2.7969-14.566 6.3867-24.613 19.59-27.34 34.801-7.75-5.5234-17.148-8.8242-27.41-8.8242h-5.2383c-2.9414 0-5.3828 2.4414-5.3828 5.3828 0 2.9414 2.4414 5.3828 5.3828 5.3828h5.2383c18.152 0 33.078 13.418 35.734 30.781h-73.547c-0.14453 0-18.801 1.5781-30.066-8.6836-2.2969-2.082-4.0195-4.6641-5.3828-7.5352 0.35937 0 0.71875 0.070313 1.0781 0.070313 20.738 0 37.598-16.863 37.598-37.598 0-9.6133-3.7305-18.727-10.188-25.617 4.7344-3.2305 9.6133-6.0977 14.277-8.6094 2.6562-1.4336 3.5859-4.6641 2.2227-7.3203s-4.6641-3.5859-7.2461-2.2227c-23.605 12.629-51.734 34.227-51.809 65.582 0 13.273 4.1602 23.824 12.344 31.215 10.984 10.406 26.77 11.695 33.801 11.695zm40.973-151.62c0 11.266-7.3906 21.023-17.867 24.324-1.3633-1.793-2.0078-3.0156-2.082-3.0156-0.14453-0.21484-0.28516-0.42969-0.42969-0.64453-5.2383-6.7461-6.8164-12.559-4.9492-17.652 2.7266-7.5352 12.699-12.988 21.453-16.434 2.5117 4.0234 3.875 8.6133 3.875 13.422zm199.55-13.133c-19.23 0-34.871-15.641-34.871-34.871 0-8.3242 2.9414-16.215 8.25-22.387 13.848 17.008 26.98 38.531 36.523 55.754-3.1562 0.93359-6.457 1.5039-9.9023 1.5039zm-253.15 81.086c5.0938 5.0234 8.25 11.77 8.25 19.016 0 14.781-12.055 26.836-26.836 26.836-1.3633 0-2.7266-0.14453-4.0898-0.35938-0.14453-1.5078-0.35938-3.0156-0.35938-4.6641 0.003906-16.504 10.266-30.211 23.035-40.828z"/>
 </g>
</svg>
